<svg width="35" height="26" viewBox="0 0 35 26" fill="none" xmlns="http://www.w3.org/2000/svg">
<path d="M2.57659 0.407999V25.68H0.848594V0.407999H2.57659ZM15.5227 8.352V23.016C15.5227 23.736 15.7147 24.216 16.0987 24.456C16.4987 24.712 17.0427 24.84 17.7307 24.84V25.344C17.3467 25.328 16.8027 25.304 16.0987 25.272C15.4107 25.256 14.6747 25.248 13.8907 25.248C13.3467 25.248 12.8027 25.256 12.2587 25.272C11.7147 25.304 11.2987 25.328 11.0107 25.344V24.84C11.5547 24.84 11.9387 24.728 12.1627 24.504C12.3867 24.28 12.4987 23.864 12.4987 23.256V11.232C12.4987 10.512 12.3867 9.984 12.1627 9.648C11.9387 9.296 11.5067 9.12 10.8667 9.12V8.616C11.3787 8.664 11.8747 8.688 12.3547 8.688C12.9627 8.688 13.5307 8.664 14.0587 8.616C14.5867 8.552 15.0747 8.464 15.5227 8.352ZM19.2907 8.256C20.1227 8.256 20.8667 8.488 21.5227 8.952C22.1787 9.4 22.6907 10.064 23.0587 10.944C23.4427 11.824 23.6347 12.928 23.6347 14.256C23.6347 15.312 23.5147 16.28 23.2747 17.16C23.0347 18.024 22.6747 18.768 22.1947 19.392C21.7307 20.016 21.1547 20.496 20.4667 20.832C19.7787 21.168 18.9947 21.336 18.1147 21.336C17.4427 21.336 16.8427 21.208 16.3147 20.952C15.7867 20.696 15.4027 20.352 15.1627 19.92L15.4027 19.584C15.5947 19.92 15.8587 20.192 16.1947 20.4C16.5307 20.608 16.9307 20.712 17.3947 20.712C18.1627 20.712 18.7707 20.464 19.2187 19.968C19.6667 19.456 19.9787 18.744 20.1547 17.832C20.3467 16.92 20.4427 15.864 20.4427 14.664C20.4427 13.336 20.3547 12.272 20.1787 11.472C20.0027 10.672 19.7387 10.096 19.3867 9.744C19.0347 9.376 18.6187 9.192 18.1387 9.192C17.4827 9.192 16.8907 9.456 16.3627 9.984C15.8507 10.496 15.5387 11.248 15.4267 12.24L15.2587 11.568C15.5147 10.512 16.0027 9.696 16.7227 9.12C17.4427 8.544 18.2987 8.256 19.2907 8.256ZM34.1235 0.407999V25.68H32.3955V0.407999H34.1235Z" fill="black"/>
</svg>
