<svg width="121" height="26" viewBox="0 0 121 26" fill="currentColor" xmlns="http://www.w3.org/2000/svg">
<path d="M2.34613 0.407999V25.68H0.618125V0.407999H2.34613ZM15.2923 8.352V23.016C15.2923 23.736 15.4843 24.216 15.8683 24.456C16.2683 24.712 16.8123 24.84 17.5003 24.84V25.344C17.1163 25.328 16.5723 25.304 15.8683 25.272C15.1803 25.256 14.4443 25.248 13.6603 25.248C13.1163 25.248 12.5723 25.256 12.0283 25.272C11.4843 25.304 11.0683 25.328 10.7803 25.344V24.84C11.3243 24.84 11.7083 24.728 11.9323 24.504C12.1563 24.28 12.2683 23.864 12.2683 23.256V11.232C12.2683 10.512 12.1563 9.984 11.9323 9.648C11.7083 9.296 11.2763 9.12 10.6363 9.12V8.616C11.1483 8.664 11.6443 8.688 12.1243 8.688C12.7323 8.688 13.3003 8.664 13.8283 8.616C14.3563 8.552 14.8443 8.464 15.2923 8.352ZM19.0603 8.256C19.8923 8.256 20.6363 8.488 21.2923 8.952C21.9483 9.4 22.4602 10.064 22.8282 10.944C23.2123 11.824 23.4043 12.928 23.4043 14.256C23.4043 15.312 23.2843 16.28 23.0443 17.16C22.8043 18.024 22.4443 18.768 21.9643 19.392C21.5003 20.016 20.9243 20.496 20.2363 20.832C19.5483 21.168 18.7643 21.336 17.8843 21.336C17.2123 21.336 16.6123 21.208 16.0843 20.952C15.5563 20.696 15.1723 20.352 14.9323 19.92L15.1723 19.584C15.3643 19.92 15.6283 20.192 15.9643 20.4C16.3003 20.608 16.7003 20.712 17.1643 20.712C17.9323 20.712 18.5403 20.464 18.9883 19.968C19.4363 19.456 19.7483 18.744 19.9243 17.832C20.1163 16.92 20.2123 15.864 20.2123 14.664C20.2123 13.336 20.1243 12.272 19.9483 11.472C19.7723 10.672 19.5083 10.096 19.1563 9.744C18.8043 9.376 18.3883 9.192 17.9083 9.192C17.2523 9.192 16.6603 9.456 16.1323 9.984C15.6203 10.496 15.3083 11.248 15.1963 12.24L15.0283 11.568C15.2843 10.512 15.7723 9.696 16.4922 9.12C17.2123 8.544 18.0683 8.256 19.0603 8.256ZM27.9828 2.472C28.5588 2.472 29.0308 2.632 29.3988 2.952C29.7668 3.272 29.9508 3.696 29.9508 4.224C29.9508 4.752 29.7668 5.176 29.3988 5.496C29.0308 5.816 28.5588 5.976 27.9828 5.976C27.4068 5.976 26.9348 5.816 26.5668 5.496C26.1988 5.176 26.0148 4.752 26.0148 4.224C26.0148 3.696 26.1988 3.272 26.5668 2.952C26.9348 2.632 27.4068 2.472 27.9828 2.472ZM29.6628 8.328V18.768C29.6628 19.44 29.7828 19.896 30.0228 20.136C30.2788 20.376 30.7028 20.496 31.2948 20.496V21C31.0068 20.984 30.5668 20.968 29.9748 20.952C29.3828 20.92 28.7828 20.904 28.1748 20.904C27.5828 20.904 26.9828 20.92 26.3748 20.952C25.7668 20.968 25.3108 20.984 25.0068 21V20.496C25.5988 20.496 26.0148 20.376 26.2548 20.136C26.5108 19.896 26.6388 19.44 26.6388 18.768V11.232C26.6388 10.496 26.5188 9.96 26.2788 9.624C26.0548 9.272 25.6308 9.096 25.0068 9.096V8.592C25.5188 8.64 26.0148 8.664 26.4948 8.664C27.0868 8.664 27.6468 8.64 28.1748 8.592C28.7188 8.528 29.2148 8.44 29.6628 8.328ZM36.9016 8.352V23.016C36.9016 23.736 37.0936 24.216 37.4776 24.456C37.8776 24.712 38.4216 24.84 39.1096 24.84V25.344C38.7256 25.328 38.1816 25.304 37.4776 25.272C36.7896 25.256 36.0536 25.248 35.2696 25.248C34.7256 25.248 34.1816 25.256 33.6376 25.272C33.0936 25.304 32.6776 25.328 32.3896 25.344V24.84C32.9336 24.84 33.3176 24.728 33.5416 24.504C33.7656 24.28 33.8776 23.864 33.8776 23.256V11.232C33.8776 10.512 33.7656 9.984 33.5416 9.648C33.3176 9.296 32.8856 9.12 32.2456 9.12V8.616C32.7576 8.664 33.2536 8.688 33.7336 8.688C34.3416 8.688 34.9096 8.664 35.4376 8.616C35.9656 8.552 36.4536 8.464 36.9016 8.352ZM40.6696 8.256C41.5016 8.256 42.2456 8.488 42.9016 8.952C43.5576 9.4 44.0696 10.064 44.4376 10.944C44.8216 11.824 45.0136 12.928 45.0136 14.256C45.0136 15.312 44.8936 16.28 44.6536 17.16C44.4136 18.024 44.0536 18.768 43.5736 19.392C43.1096 20.016 42.5336 20.496 41.8456 20.832C41.1576 21.168 40.3736 21.336 39.4936 21.336C38.8216 21.336 38.2216 21.208 37.6936 20.952C37.1656 20.696 36.7816 20.352 36.5416 19.92L36.7816 19.584C36.9736 19.92 37.2376 20.192 37.5736 20.4C37.9096 20.608 38.3096 20.712 38.7736 20.712C39.5416 20.712 40.1496 20.464 40.5976 19.968C41.0456 19.456 41.3576 18.744 41.5336 17.832C41.7256 16.92 41.8216 15.864 41.8216 14.664C41.8216 13.336 41.7336 12.272 41.5576 11.472C41.3816 10.672 41.1176 10.096 40.7656 9.744C40.4136 9.376 39.9976 9.192 39.5176 9.192C38.8616 9.192 38.2696 9.456 37.7416 9.984C37.2296 10.496 36.9176 11.248 36.8056 12.24L36.6376 11.568C36.8936 10.512 37.3816 9.696 38.1016 9.12C38.8216 8.544 39.6776 8.256 40.6696 8.256ZM52.6642 8.256C54.0722 8.256 55.1762 8.68 55.9762 9.528C56.7762 10.376 57.1762 11.728 57.1762 13.584H49.0882L49.0642 13.128H54.3922C54.4242 12.344 54.3762 11.624 54.2482 10.968C54.1202 10.296 53.9122 9.76 53.6242 9.36C53.3522 8.96 52.9922 8.76 52.5442 8.76C51.9362 8.76 51.4082 9.12 50.9602 9.84C50.5122 10.544 50.2322 11.704 50.1202 13.32L50.2162 13.464C50.1842 13.672 50.1602 13.896 50.1442 14.136C50.1442 14.376 50.1442 14.616 50.1442 14.856C50.1442 15.96 50.3042 16.872 50.6242 17.592C50.9442 18.312 51.3602 18.84 51.8722 19.176C52.3842 19.512 52.9122 19.68 53.4562 19.68C53.8242 19.68 54.2002 19.624 54.5842 19.512C54.9682 19.4 55.3442 19.192 55.7122 18.888C56.0802 18.584 56.4162 18.152 56.7202 17.592L57.1762 17.784C57.0002 18.344 56.7042 18.904 56.2882 19.464C55.8882 20.008 55.3682 20.456 54.7282 20.808C54.0882 21.16 53.3362 21.336 52.4722 21.336C51.3842 21.336 50.4242 21.096 49.5922 20.616C48.7602 20.136 48.1122 19.424 47.6482 18.48C47.1842 17.52 46.9522 16.352 46.9522 14.976C46.9522 13.52 47.1922 12.296 47.6722 11.304C48.1682 10.312 48.8482 9.56 49.7122 9.048C50.5762 8.52 51.5602 8.256 52.6642 8.256ZM63.2934 25.512C62.3494 25.512 61.4934 25.424 60.7254 25.248C59.9574 25.072 59.3494 24.808 58.9014 24.456C58.4534 24.12 58.2294 23.688 58.2294 23.16C58.2294 22.648 58.4534 22.192 58.9014 21.792C59.3494 21.392 60.0054 21.088 60.8694 20.88L61.0374 21.264C60.7334 21.44 60.5014 21.68 60.3414 21.984C60.1814 22.288 60.1014 22.608 60.1014 22.944C60.1014 23.632 60.4134 24.16 61.0374 24.528C61.6774 24.912 62.5254 25.104 63.5814 25.104C64.3014 25.104 64.9654 25.008 65.5734 24.816C66.1814 24.624 66.6694 24.328 67.0374 23.928C67.4054 23.528 67.5894 23.032 67.5894 22.44C67.5894 21.944 67.4054 21.528 67.0374 21.192C66.6854 20.856 65.9734 20.688 64.9014 20.688H63.3174C62.7254 20.688 62.1814 20.624 61.6854 20.496C61.2054 20.368 60.8214 20.16 60.5334 19.872C60.2454 19.584 60.1014 19.184 60.1014 18.672C60.1014 18.048 60.3574 17.488 60.8694 16.992C61.3814 16.48 62.1814 15.984 63.2694 15.504L63.5334 15.72C63.1334 15.928 62.7734 16.152 62.4534 16.392C62.1494 16.632 61.9974 16.936 61.9974 17.304C61.9974 17.816 62.3494 18.072 63.0534 18.072H65.7654C66.5974 18.072 67.3334 18.176 67.9734 18.384C68.6294 18.592 69.1494 18.92 69.5334 19.368C69.9174 19.816 70.1094 20.408 70.1094 21.144C70.1094 21.912 69.8614 22.624 69.3654 23.28C68.8694 23.952 68.1174 24.488 67.1094 24.888C66.1174 25.304 64.8454 25.512 63.2934 25.512ZM63.5094 15.888C62.6454 15.888 61.8614 15.76 61.1574 15.504C60.4694 15.232 59.9254 14.816 59.5254 14.256C59.1254 13.68 58.9254 12.952 58.9254 12.072C58.9254 11.192 59.1254 10.472 59.5254 9.912C59.9254 9.352 60.4694 8.936 61.1574 8.664C61.8614 8.392 62.6454 8.256 63.5094 8.256C64.3894 8.256 65.1734 8.392 65.8614 8.664C66.5494 8.936 67.0934 9.352 67.4934 9.912C67.8934 10.472 68.0934 11.192 68.0934 12.072C68.0934 12.952 67.8934 13.68 67.4934 14.256C67.0934 14.816 66.5494 15.232 65.8614 15.504C65.1734 15.76 64.3894 15.888 63.5094 15.888ZM63.5094 15.456C63.9894 15.456 64.3654 15.216 64.6374 14.736C64.9254 14.24 65.0694 13.352 65.0694 12.072C65.0694 10.792 64.9254 9.912 64.6374 9.432C64.3654 8.936 63.9894 8.688 63.5094 8.688C63.0294 8.688 62.6454 8.936 62.3574 9.432C62.0854 9.912 61.9494 10.792 61.9494 12.072C61.9494 13.352 62.0854 14.24 62.3574 14.736C62.6454 15.216 63.0294 15.456 63.5094 15.456ZM67.1334 10.296L66.6774 10.128C66.9174 9.536 67.3094 9.04 67.8534 8.64C68.3974 8.224 68.9734 8.016 69.5814 8.016C70.0454 8.016 70.4054 8.144 70.6614 8.4C70.9334 8.656 71.0694 9.016 71.0694 9.48C71.0694 9.96 70.9414 10.312 70.6854 10.536C70.4294 10.76 70.1494 10.872 69.8454 10.872C69.5734 10.872 69.3254 10.784 69.1014 10.608C68.8774 10.416 68.7494 10.128 68.7174 9.744C68.6854 9.344 68.8134 8.848 69.1014 8.256L69.3414 8.352C68.7174 8.592 68.2534 8.856 67.9494 9.144C67.6454 9.432 67.3734 9.816 67.1334 10.296ZM83.4035 8.328V18.408C83.4035 19.128 83.5235 19.664 83.7635 20.016C84.0035 20.352 84.4275 20.52 85.0355 20.52V21.024C84.5395 20.976 84.0435 20.952 83.5475 20.952C82.9555 20.952 82.3875 20.976 81.8435 21.024C81.3155 21.072 80.8275 21.16 80.3795 21.288V18.888C79.9795 19.768 79.4275 20.4 78.7235 20.784C78.0355 21.152 77.2915 21.336 76.4915 21.336C75.8675 21.336 75.3395 21.248 74.9075 21.072C74.4915 20.912 74.1555 20.688 73.8995 20.4C73.6275 20.096 73.4355 19.696 73.3235 19.2C73.2115 18.704 73.1555 18.064 73.1555 17.28V11.208C73.1555 10.488 73.0355 9.96 72.7955 9.624C72.5715 9.272 72.1475 9.096 71.5235 9.096V8.592C72.0355 8.64 72.5315 8.664 73.0115 8.664C73.6035 8.664 74.1635 8.64 74.6915 8.592C75.2355 8.528 75.7315 8.44 76.1795 8.328V18.12C76.1795 18.552 76.2115 18.936 76.2755 19.272C76.3555 19.608 76.5075 19.88 76.7315 20.088C76.9555 20.28 77.2915 20.376 77.7395 20.376C78.2355 20.376 78.6835 20.232 79.0835 19.944C79.4835 19.656 79.7955 19.264 80.0195 18.768C80.2595 18.272 80.3795 17.712 80.3795 17.088V11.208C80.3795 10.488 80.2595 9.96 80.0195 9.624C79.7955 9.272 79.3715 9.096 78.7475 9.096V8.592C79.2595 8.64 79.7555 8.664 80.2355 8.664C80.8275 8.664 81.3875 8.64 81.9155 8.592C82.4595 8.528 82.9555 8.44 83.4035 8.328ZM94.0998 8.256C94.5958 8.256 95.0038 8.36 95.3238 8.568C95.6598 8.776 95.9078 9.04 96.0678 9.36C96.2278 9.68 96.3078 10.016 96.3078 10.368C96.3078 10.896 96.1478 11.336 95.8278 11.688C95.5238 12.04 95.1158 12.216 94.6038 12.216C94.1238 12.216 93.7318 12.088 93.4278 11.832C93.1238 11.576 92.9718 11.224 92.9718 10.776C92.9718 10.376 93.0678 10.04 93.2598 9.768C93.4678 9.496 93.6998 9.28 93.9558 9.12C93.7798 9.024 93.5798 8.992 93.3558 9.024C92.9718 9.056 92.6198 9.192 92.2998 9.432C91.9798 9.672 91.7078 9.968 91.4838 10.32C91.2598 10.672 91.0838 11.048 90.9558 11.448C90.8438 11.848 90.7878 12.232 90.7878 12.6V18.528C90.7878 19.312 90.9878 19.84 91.3878 20.112C91.7878 20.368 92.3718 20.496 93.1398 20.496V21C92.7718 20.984 92.2358 20.968 91.5318 20.952C90.8438 20.92 90.1238 20.904 89.3718 20.904C88.7478 20.904 88.1238 20.92 87.4998 20.952C86.8918 20.968 86.4358 20.984 86.1318 21V20.496C86.7238 20.496 87.1398 20.376 87.3798 20.136C87.6358 19.896 87.7638 19.44 87.7638 18.768V11.208C87.7638 10.488 87.6438 9.96 87.4038 9.624C87.1798 9.272 86.7558 9.096 86.1318 9.096V8.592C86.6438 8.64 87.1398 8.664 87.6198 8.664C88.2118 8.664 88.7718 8.64 89.2998 8.592C89.8438 8.528 90.3398 8.44 90.7878 8.328V10.824C90.9798 10.376 91.2278 9.96 91.5318 9.576C91.8518 9.192 92.2278 8.88 92.6598 8.64C93.1078 8.384 93.5878 8.256 94.0998 8.256ZM108.739 8.328V18.408C108.739 19.128 108.859 19.664 109.099 20.016C109.339 20.352 109.763 20.52 110.371 20.52V21.024C109.875 20.976 109.379 20.952 108.883 20.952C108.291 20.952 107.723 20.976 107.179 21.024C106.651 21.072 106.163 21.16 105.715 21.288V18.888C105.315 19.768 104.763 20.4 104.059 20.784C103.371 21.152 102.627 21.336 101.827 21.336C101.203 21.336 100.675 21.248 100.243 21.072C99.8274 20.912 99.4914 20.688 99.2354 20.4C98.9634 20.096 98.7714 19.696 98.6594 19.2C98.5474 18.704 98.4914 18.064 98.4914 17.28V11.208C98.4914 10.488 98.3714 9.96 98.1314 9.624C97.9074 9.272 97.4834 9.096 96.8594 9.096V8.592C97.3714 8.64 97.8674 8.664 98.3474 8.664C98.9394 8.664 99.4994 8.64 100.027 8.592C100.571 8.528 101.067 8.44 101.515 8.328V18.12C101.515 18.552 101.547 18.936 101.611 19.272C101.691 19.608 101.843 19.88 102.067 20.088C102.291 20.28 102.627 20.376 103.075 20.376C103.571 20.376 104.019 20.232 104.419 19.944C104.819 19.656 105.131 19.264 105.355 18.768C105.595 18.272 105.715 17.712 105.715 17.088V11.208C105.715 10.488 105.595 9.96 105.355 9.624C105.131 9.272 104.707 9.096 104.083 9.096V8.592C104.595 8.64 105.091 8.664 105.571 8.664C106.163 8.664 106.723 8.64 107.251 8.592C107.795 8.528 108.291 8.44 108.739 8.328ZM120.354 0.407999V25.68H118.626V0.407999H120.354Z" fill="black"/>
</svg>
